<svg xmlns="http://www.w3.org/2000/svg" xmlns:xlink="http://www.w3.org/1999/xlink" aria-hidden="true" role="img" class="iconify iconify--ph" width="32" height="32" preserveAspectRatio="xMidYMid meet" viewBox="0 0 256 256"><path d="M40 88h176V48a8 8 0 0 0-8-8H48a8 8 0 0 0-8 8z" opacity=".2" fill="currentColor"></path><path d="M208 32h-24v-8a8 8 0 0 0-16 0v8H88v-8a8 8 0 0 0-16 0v8H48a16 16 0 0 0-16 16v160a16 16 0 0 0 16 16h160a16 16 0 0 0 16-16V48a16 16 0 0 0-16-16zM72 48v8a8 8 0 0 0 16 0v-8h80v8a8 8 0 0 0 16 0v-8h24v32H48V48zm136 160H48V96h160v112z" fill="currentColor"></path><path d="M117.4 144.1l8.8-11.1a8 8 0 0 0-6.2-13H92a8 8 0 0 0 0 16h11.4l-5.6 7a8 8 0 0 0 6.2 13a8 8 0 0 1 0 16a8.3 8.3 0 0 1-5.7-2.3a7.9 7.9 0 0 0-11.3 0a8 8 0 0 0 0 11.3a24 24 0 0 0 41-17a23.9 23.9 0 0 0-10.6-19.9z" fill="currentColor"></path><path d="M163.6 120.8a8.2 8.2 0 0 0-8.4.8l-16 12a8 8 0 0 0-1.6 11.2a8.1 8.1 0 0 0 11.2 1.6l3.2-2.4v36a8 8 0 0 0 16 0v-52a8.2 8.2 0 0 0-4.4-7.2z" fill="currentColor"></path></svg>