<svg xmlns="http://www.w3.org/2000/svg" version="1.1" xmlns:xlink="http://www.w3.org/1999/xlink" xmlns:svgjs="http://svgjs.dev/svgjs" viewBox="0 0 1920 1080"><rect width="1920" height="1080" fill="#009b9b"></rect><g transform="matrix(0.5750000000000001,0.9959292143521044,-0.9959292143521044,0.5750000000000001,944.0497118558644,-722.4863243245688)"><path d="M0,-1080C1.6925478132725214,-973.1254940567662,10.609137024496397,-639.3429062558972,10.155286879635128,-438.7529643405971C9.701436734773859,-238.163022425297,-20.31183885617853,-95.33572233512828,-2.7231008691676095,123.53965149180056C14.86563711784331,342.41502531872936,109.53763560980043,643.9742092921229,115.68771480170065,874.4992786209759C121.83779399360087,1105.024347949829,53.45866008251714,1292.4399472350817,34.1773742822337,1506.6900674649191C14.896088481950258,1720.9401876947566,5.69622904703895,2051.1150112441533,0,2160L 1920 2160 L 1920 -1080 Z" fill="url(&quot;#SvgjsLinearGradient1416&quot;)"></path><path d="M160,-1080C147.3572012421813,-1014.6342331313259,79.31463586273895,-832.4273751626747,84.14320745308777,-687.8053987879553C88.97177904343658,-543.1834224132358,162.11270649920863,-355.10466161082616,188.97142954209292,-212.26814175168366C215.8301525849772,-69.43162189254113,245.71753477745673,58.91851802591596,245.29554571039344,169.2137203668999C244.87355664333015,279.50892270788387,204.1212088298173,298.88045669931364,186.4394951397131,449.50307229422003C168.7577814496089,600.1256878891264,143.61091640310718,939.6869094414633,139.20526356976814,1072.9494139363385C134.7996107364291,1206.2119184312137,142.87435017021588,1119.7534543486322,160.00557813967887,1249.0780992634716C177.13680610914187,1378.402744178311,241.99356107649254,1697.0769666359536,241.99263138654607,1848.897283425375C241.9917016965996,2000.7176002147964,173.66543856442433,2108.1495472375627,160,2160L 1920 2160 L 1920 -1080 Z" fill="url(&quot;#SvgjsLinearGradient1417&quot;)"></path><path d="M320,-1080C302.86119439046377,-999.5935702198258,199.86706883024462,-775.6940432087183,217.16716634278262,-597.5614213189548C234.46726385532062,-419.42879942919126,385.575639493029,-180.03098673632508,423.800585075228,-11.204268661418524C462.02553065742705,157.62244941348803,476.47199394452673,212.65183125301593,446.5168398359767,415.3988871304845C416.5616857274267,618.1459430079531,278.7030311811554,1015.1099153173095,244.06966042392804,1205.278066603393C209.4362896667007,1395.4462178894764,226.06155869660063,1397.2874726142177,238.71661529261263,1556.4077948469856C251.37167188862463,1715.5281170797534,306.4527692154354,2059.401299141164,320,2160L 1920 2160 L 1920 -1080 Z" fill="url(&quot;#SvgjsLinearGradient1418&quot;)"></path><path d="M480,-1080C481.7409740400294,-980.4019437142363,480.6913898196795,-676.4259366890693,490.44584424017665,-482.4116622854177C500.2002986606738,-288.3973878817661,525.177308937509,-88.14096351687704,538.5267265229828,84.08564642190973C551.8761441084566,256.3122563606965,560.4054181196224,390.5108594090492,570.5423497530193,550.9479973473028C580.6792813864162,711.3851352855564,613.0562101934772,870.5671887666582,599.3483163233641,1046.7084740514315C585.640422453251,1222.8497593362047,508.1863725862342,1422.2471213978476,488.2949865323402,1607.7957090559423C468.4036004784462,1793.344296714037,481.38249775539003,2067.9659515093235,480,2160L 1920 2160 L 1920 -1080 Z" fill="url(&quot;#SvgjsLinearGradient1419&quot;)"></path><path d="M640,-1080C637.0945976631211,-938.5166525724491,639.1114705159976,-490.1869673339629,622.5675859787267,-231.09991543469465C606.0237014414558,27.98713646457361,551.6377622093571,219.85719222676562,540.7366927763748,474.52231139560945C529.8356233433924,729.1874305644533,540.6172848435614,1015.9778514776367,557.1611693808322,1296.8907995783684C573.7050539181031,1577.8037476791,626.1935282301387,2016.1484665963947,640,2160L 1920 2160 L 1920 -1080 Z" fill="url(&quot;#SvgjsLinearGradient1420&quot;)"></path><path d="M800,-1080C809.6755794189545,-1000.5118565706225,851.5456615188034,-739.4976873244491,858.053476513727,-603.0711394237352C864.5612915086506,-466.6445915230213,829.9632149414467,-433.65403036028,839.0468899695419,-261.44071259571683C848.1305649976371,-89.22739483115365,917.9163726325127,268.73597535696297,912.5555266822978,430.20876716364387C907.1946807320829,591.6815589703248,807.0391687462894,568.8642983661204,806.8818142682525,707.3960382443688C806.7244597902155,845.9277781226173,929.9171429616326,1100.7523465266054,911.6113998140763,1261.3992064331344C893.30565666652,1422.0460663396634,715.6492553519274,1521.5103987557316,697.0473553829147,1671.2771976835425C678.445455413902,1821.0439966113534,782.8412258971524,2078.546199613924,800,2160L 1920 2160 L 1920 -1080 Z" fill="url(&quot;#SvgjsLinearGradient1421&quot;)"></path><path d="M960,-1080C940.7188885227134,-998.2669869053038,845.9256039000078,-716.4505990365359,844.3133311362808,-589.6019214318228C842.7010583725538,-462.75324382710966,947.4960192039357,-460.3932646078339,950.3263634176383,-318.90793437172124C953.1567076313409,-177.4226041356086,868.1376906438842,121.9017054229561,861.2953964184965,259.31005998485307C854.4531021931087,396.71841454675007,890.4042478012594,390.48623155085266,909.2725980653117,505.54219299966064C928.140948329364,620.5981544484687,952.7621992217065,795.9492145834968,974.5054980028106,949.645828677701C996.2487967839146,1103.3424427719053,1062.8361506466763,1285.292486979573,1039.7323907519358,1427.7218775648862C1016.6286308571953,1570.1512681501995,849.1716704263566,1682.1758184503951,835.8829386343673,1804.2221721895808C822.594206842378,1926.2685259287664,939.3138231057279,2100.7036953649304,960,2160L 1920 2160 L 1920 -1080 Z" fill="url(&quot;#SvgjsLinearGradient1422&quot;)"></path><path d="M1120,-1080C1129.2468258840856,-933.7464968923163,1194.6294969118262,-474.37994218562756,1175.4809553045134,-202.47898135389772C1156.3324136972005,69.42197947783211,994.9156428784659,303.04039585741907,1005.1087503561228,551.4057649903789C1015.3018578337796,799.7711341233387,1217.491058563142,1019.6141942755912,1236.6396001704547,1287.7132334438613C1255.7881417777676,1555.8122726121314,1139.4399333617425,2014.6188722406437,1120,2160L 1920 2160 L 1920 -1080 Z" fill="url(&quot;#SvgjsLinearGradient1423&quot;)"></path><path d="M1280,-1080C1263.7388710878495,-961.9352501692454,1173.6174310601898,-578.8438541663509,1182.433226527097,-371.6115010154725C1191.2490219940044,-164.37914786459422,1311.2287699426986,-57.31907162496748,1332.8947728014439,163.39411890526992C1354.5607756601892,384.1073094355073,1317.82019543936,726.568632823229,1312.4292436795686,952.6676421659517C1307.038291919777,1178.7666515086744,1305.9539361892896,1318.7661153225981,1300.5490622426948,1519.988174961606C1295.1441882961,1721.210234600614,1283.4248437071158,2053.331362493601,1280,2160L 1920 2160 L 1920 -1080 Z" fill="url(&quot;#SvgjsLinearGradient1424&quot;)"></path><path d="M1440,-1080C1454.7219805696975,-985.5557088666396,1547.450363333631,-735.1983682072105,1528.3318834181848,-513.3342531998378C1509.2134035027386,-291.47013819246513,1335.0308252101327,40.58331879282855,1325.289120507323,251.18469004423628C1315.5474158045135,461.786061295644,1461.8781132553356,536.8354742345157,1469.8816552013268,750.2739743086086C1477.885197147318,963.7124743827014,1378.2906480501576,1296.8613528735618,1373.31037218327,1531.8156904887937C1368.3300963163822,1766.7700281040256,1428.885062030545,2055.302615081466,1440,2160L 1920 2160 L 1920 -1080 Z" fill="url(&quot;#SvgjsLinearGradient1425&quot;)"></path><path d="M1600,-1080C1597.5101636245795,-974.0905330331365,1577.0113970739383,-617.1124915678718,1585.0609817474763,-444.54319819881897C1593.1105664210143,-271.9739048297662,1629.1259006676958,-217.75205606192927,1648.2975080412282,-44.58423978568331C1667.4691154147606,128.58357649056265,1710.1456976289562,418.2217464349616,1700.0906259886713,594.4636994586568C1690.0355543483863,770.7056524823521,1623.2231439117538,847.9102036872456,1587.967078199518,1012.867478356488C1552.7110124872822,1177.8247530257304,1486.548744748509,1393.0185938668594,1488.554231715256,1584.2073474741114C1490.559718682003,1775.3961010813634,1581.4257052858761,2064.034557912352,1600,2160L 1920 2160 L 1920 -1080 Z" fill="url(&quot;#SvgjsLinearGradient1426&quot;)"></path><path d="M1760,-1080C1770.7289360190243,-977.1757971654317,1810.5628645456484,-660.4996482553813,1824.3736161141462,-463.05478299259073C1838.184367682644,-265.60991772980015,1839.4079009808843,-78.12353085937715,1842.8645094109868,104.66919157674374C1846.3211178410893,287.46191401286467,1859.029990912041,484.46659596724623,1845.113266694761,633.7015516241346C1831.196542477481,782.936507281023,1767.1677672489766,850.042524726862,1759.3641641073066,1000.0789255180737C1751.5605609656366,1150.1153263092854,1798.1856751959583,1340.5997772910832,1798.2916478447405,1533.9199563714044C1798.3976204935227,1727.2401354517256,1766.3819413074568,2055.6533260619008,1760,2160L 1920 2160 L 1920 -1080 Z" fill="url(&quot;#SvgjsLinearGradient1427&quot;)"></path></g><defs><linearGradient x1="0.1" y1="0" x2="0" y2="1" id="SvgjsLinearGradient1416"><stop stop-color="#009b9b" offset="0"></stop><stop stop-color="#009b81" offset="0"></stop></linearGradient><linearGradient x1="0.1" y1="0" x2="0" y2="1" id="SvgjsLinearGradient1417"><stop stop-color="#008989" offset="0"></stop><stop stop-color="#008972" offset="0.08333333333333333"></stop></linearGradient><linearGradient x1="0.1" y1="0" x2="0" y2="1" id="SvgjsLinearGradient1418"><stop stop-color="#007777" offset="0"></stop><stop stop-color="#007763" offset="0.16666666666666666"></stop></linearGradient><linearGradient x1="0.1" y1="0" x2="0" y2="1" id="SvgjsLinearGradient1419"><stop stop-color="#006565" offset="0"></stop><stop stop-color="#006554" offset="0.25"></stop></linearGradient><linearGradient x1="0.1" y1="0" x2="0" y2="1" id="SvgjsLinearGradient1420"><stop stop-color="#005353" offset="0"></stop><stop stop-color="#005345" offset="0.3333333333333333"></stop></linearGradient><linearGradient x1="0.1" y1="0" x2="0" y2="1" id="SvgjsLinearGradient1421"><stop stop-color="#004040" offset="0"></stop><stop stop-color="#004035" offset="0.4166666666666667"></stop></linearGradient><linearGradient x1="0.1" y1="0" x2="0" y2="1" id="SvgjsLinearGradient1422"><stop stop-color="#002e2e" offset="0"></stop><stop stop-color="#002e26" offset="0.5"></stop></linearGradient><linearGradient x1="0.1" y1="0" x2="0" y2="1" id="SvgjsLinearGradient1423"><stop stop-color="#001c1c" offset="0"></stop><stop stop-color="#001c17" offset="0.5833333333333334"></stop></linearGradient><linearGradient x1="0.1" y1="0" x2="0" y2="1" id="SvgjsLinearGradient1424"><stop stop-color="#000a0a" offset="0"></stop><stop stop-color="#000a08" offset="0.6666666666666666"></stop></linearGradient><linearGradient x1="0.1" y1="0" x2="0" y2="1" id="SvgjsLinearGradient1425"><stop stop-color="#000000" offset="0"></stop><stop stop-color="#000000" offset="0.75"></stop></linearGradient><linearGradient x1="0.1" y1="0" x2="0" y2="1" id="SvgjsLinearGradient1426"><stop stop-color="#000000" offset="0"></stop><stop stop-color="#000000" offset="0.8333333333333334"></stop></linearGradient><linearGradient x1="0.1" y1="0" x2="0" y2="1" id="SvgjsLinearGradient1427"><stop stop-color="#000000" offset="0"></stop><stop stop-color="#000000" offset="0.9166666666666666"></stop></linearGradient></defs></svg>