<?xml version="1.0" encoding="UTF-8" standalone="no"?>
<svg
   version="1.1"
   width="468px"
   height="335px"
   viewBox="218 950 468 335"
   id="svg187"
   sodipodi:docname="photohome.svg"
   inkscape:version="1.1 (c68e22c387, 2021-05-23)"
   xmlns:inkscape="http://www.inkscape.org/namespaces/inkscape"
   xmlns:sodipodi="http://sodipodi.sourceforge.net/DTD/sodipodi-0.dtd"
   xmlns="http://www.w3.org/2000/svg"
   xmlns:svg="http://www.w3.org/2000/svg">
  <defs
     id="defs191" />
  <sodipodi:namedview
     id="namedview189"
     pagecolor="#ffffff"
     bordercolor="#666666"
     borderopacity="1.0"
     inkscape:pageshadow="2"
     inkscape:pageopacity="0.0"
     inkscape:pagecheckerboard="0"
     showgrid="false"
     inkscape:zoom="2.3343284"
     inkscape:cx="234.11445"
     inkscape:cy="167.5"
     inkscape:window-width="1920"
     inkscape:window-height="986"
     inkscape:window-x="-11"
     inkscape:window-y="-11"
     inkscape:window-maximized="1"
     inkscape:current-layer="g4" />
  <g
     id="layer1">
    <g
       style="fill:transparent; fill-opacity:1.0; stroke-linejoin: miter"
       id="g4">
      <path
         d="M217.999,949.7046C217.9209,949.7046,217.84601,949.7356,217.79079,949.79083C217.73557,949.84607,217.70453,949.9209,217.70453,949.999L217.70554,1285.0C217.70554,1285.1626,217.83737,1285.2944,218.0,1285.2944L686.001,1285.2954C686.0791,1285.2954,686.15393,1285.2644,686.20917,1285.2092C686.2644,1285.154,686.2954,1285.0791,686.2954,1285.001L686.29443,950.0C686.29443,949.8374,686.1626,949.70557,686.0,949.70557L217.999,949.7046 Z"
         id="path2"
         style="fill:none" />
    </g>
    <g
       style="fill:rgb(0,0,0); fill-opacity:0.3372549; stroke-linejoin: miter"
       id="g8">
      <path
         d="M644.06433,1232.7217L642.35144,1233.0691Q636.9385,1233.5354,622.2595,1233.9192Q614.92004,1234.1108,605.2641,1234.282Q601.8838,1234.3804,571.0835,1234.7485Q557.8615,1234.8882,543.5963,1234.991Q537.11566,1235.0654,498.45258,1235.2163Q466.79205,1235.3115,430.95734,1235.2583Q396.75787,1235.1843,368.6452,1234.9841Q354.58875,1234.884,342.05402,1234.7522Q312.04883,1234.3953,307.87372,1234.2856Q266.8982,1233.5645,269.2295,1232.6145Q271.02405,1232.1238,283.82,1231.7205Q290.0011,1231.5178,298.49878,1231.3367Q301.2998,1231.2332,329.20422,1230.8394Q334.28845,1230.7432,369.24286,1230.4514Q383.508,1230.3486,398.8167,1230.2827Q429.43402,1230.1511,464.22522,1230.167Q500.21082,1230.1912,529.75714,1230.3662Q544.57446,1230.4504,557.87006,1230.5664Q565.4689,1230.6045,594.3332,1230.9854Q616.65753,1231.3162,629.31805,1231.7249Q643.2762,1232.1511,644.06433,1232.7217"
         id="path6" />
    </g>
    <g
       style="fill:rgb(158,223,229); fill-opacity:1.0; stroke-linejoin: miter"
       id="g12">
      <path
         d="M400.8769,1166.0391C400.8521,1171.7429,407.648,1172.5242,416.0266,1172.5603C424.4051,1172.5964,431.20728,1171.877,431.23193,1166.1699 Z"
         id="path10" />
    </g>
    <g
       style="fill:rgb(60,70,79); fill-opacity:1.0; stroke-linejoin: miter"
       id="g16">
      <path
         d="M527.90393,1208.0396L528.08417,1210.7874Q529.3845,1219.0923,535.75195,1224.0803Q542.1637,1229.0647,550.86487,1228.1389Q559.1696,1226.8384,564.1578,1220.4705Q565.75616,1218.4124,566.7926,1215.9834L567.6645,1213.4866Q568.3837,1210.9087,568.3965,1208.1052Q568.19336,1199.5017,562.48956,1193.779Q556.7861,1188.0571,548.1829,1187.8259Q539.5794,1188.0288,533.8571,1193.7327Q528.1349,1199.4365,527.90393,1208.0396 Z"
         id="path14" />
    </g>
    <g
       style="fill:rgb(60,70,79); fill-opacity:1.0; stroke-linejoin: miter"
       id="g20">
      <path
         d="M333.5628,1205.9485L333.67218,1208.7954Q334.7843,1217.4229,341.23077,1222.761Q347.7229,1228.0972,356.74927,1227.3835Q365.3761,1226.271,370.7146,1219.8247Q372.42572,1217.7407,373.56616,1215.2571L374.5381,1212.6987Q375.35443,1210.053,375.44623,1207.1536Q375.47736,1198.248,369.73804,1192.169Q363.99866,1186.0896,355.10626,1185.6091Q346.20105,1185.5776,340.122,1191.3171Q334.0431,1197.0562,333.5628,1205.9485 Z"
         id="path18" />
    </g>
    <g
       style="fill:rgb(50,50,50); fill-opacity:1.0; stroke-linejoin: miter"
       id="g24">
      <path
         d="M547.7822,1206.3445C549.04504,1206.3499,550.06464,1207.3782,550.0591,1208.6409C550.05365,1209.9038,549.0252,1210.9231,547.7624,1210.9177 Z"
         id="path22" />
    </g>
    <g
       style="fill:rgb(50,50,50); fill-opacity:1.0; stroke-linejoin: miter"
       id="g28">
      <path
         d="M547.7542,1212.8337C548.2893,1212.8359,548.7216,1213.272,548.7195,1213.8076C548.717,1214.3428,548.2813,1214.7751,547.7458,1214.7727C547.21045,1214.7705,546.7784,1214.3345,546.7807,1213.7996C546.7829,1213.2634,547.2186,1212.8315,547.7542,1212.8337 Z"
         id="path26" />
    </g>
    <g
       style="fill:rgb(50,50,50); fill-opacity:1.0; stroke-linejoin: miter"
       id="g32">
      <path
         d="M545.1726,1215.7983L545.13873,1223.6494C542.8444,1223.2495,540.7276,1222.3374,538.90906,1221.0356L544.48425,1215.5078C544.70807,1215.615,544.9371,1215.7129,545.1726,1215.7983 Z"
         id="path30" />
    </g>
    <g
       style="fill:rgb(50,50,50); fill-opacity:1.0; stroke-linejoin: miter"
       id="g36">
      <path
         d="M540.86646,1211.8604L535.2915,1217.388C534.00476,1215.5581,533.11176,1213.4331,532.73175,1211.135L540.58356,1211.169C540.6673,1211.4045,540.76135,1211.636,540.86646,1211.8604 Z"
         id="path34" />
    </g>
    <g
       style="fill:rgb(50,50,50); fill-opacity:1.0; stroke-linejoin: miter"
       id="g40">
      <path
         d="M540.8953,1205.3435C540.78815,1205.5667,540.6912,1205.7961,540.60547,1206.0317L532.7539,1205.9983C533.1535,1203.7031,534.06573,1201.5872,535.3678,1199.7683L540.8953,1205.3435 Z"
         id="path38" />
    </g>
    <g
       style="fill:rgb(50,50,50); fill-opacity:1.0; stroke-linejoin: miter"
       id="g44">
      <path
         d="M551.05994,1201.7546C550.83594,1201.6475,550.6068,1201.55,550.3715,1201.4644L550.4053,1193.613C552.69965,1194.0127,554.81616,1194.925,556.6349,1196.2275L551.05994,1201.7546 Z"
         id="path42" />
    </g>
    <g
       style="fill:rgb(50,50,50); fill-opacity:1.0; stroke-linejoin: miter"
       id="g48">
      <path
         d="M547.79047,1204.4275C547.2549,1204.4248,546.823,1203.9888,546.8253,1203.4539C546.82764,1202.9187,547.26337,1202.4863,547.7988,1202.4885C548.3339,1202.4907,548.76624,1202.9268,548.764,1203.4622C548.7612,1203.9973,548.3255,1204.4297,547.79047,1204.4275 Z"
         id="path46" />
    </g>
    <g
       style="fill:rgb(50,50,50); fill-opacity:1.0; stroke-linejoin: miter"
       id="g52">
      <path
         d="M539.0163,1196.1501C540.84576,1194.8638,542.97076,1193.9707,545.2681,1193.5908L545.23444,1201.4417C544.9983,1201.5249,544.7679,1201.6206,544.5435,1201.7261L539.0163,1196.1501 Z"
         id="path50" />
    </g>
    <g
       style="fill:rgb(50,50,50); fill-opacity:1.0; stroke-linejoin: miter"
       id="g56">
      <path
         d="M554.67755,1205.4016L560.25244,1199.874C561.5388,1201.7036,562.4323,1203.8289,562.8121,1206.1265L554.9604,1206.093C554.8771,1205.8564,554.7831,1205.626,554.67755,1205.4016 Z"
         id="path54" />
    </g>
    <g
       style="fill:rgb(50,50,50); fill-opacity:1.0; stroke-linejoin: miter"
       id="g60">
      <path
         d="M556.5284,1221.1113C554.6984,1222.3972,552.5735,1223.2908,550.2757,1223.6709L550.3095,1215.8196C550.54565,1215.7361,550.77637,1215.6411,551.0008,1215.5356L556.5284,1221.1113 Z"
         id="path58" />
    </g>
    <g
       style="fill:rgb(50,50,50); fill-opacity:1.0; stroke-linejoin: miter"
       id="g64">
      <path
         d="M554.9389,1211.2297L562.7899,1211.2639C562.39044,1213.5581,561.47833,1215.6748,560.1766,1217.4946L554.64905,1211.918C554.7561,1211.6946,554.8536,1211.4651,554.9389,1211.2297 Z"
         id="path62" />
    </g>
    <g
       style="fill:rgb(50,50,50); fill-opacity:1.0; stroke-linejoin: miter"
       id="g68">
      <path
         d="M551.97485,1208.6482C551.9773,1208.113,552.41296,1207.6807,552.9484,1207.6826C553.4838,1207.6853,553.916,1208.1213,553.9135,1208.656C553.37836,1208.6543,552.94617,1208.2183,552.9484,1207.6826 Z"
         id="path66" />
    </g>
    <g
       style="fill:rgb(50,50,50); fill-opacity:1.0; stroke-linejoin: miter"
       id="g72">
      <path
         d="M543.5694,1208.6118C543.5671,1209.1477,543.1313,1209.5796,542.5959,1209.5771C542.06036,1209.5747,541.62836,1209.1392,541.6307,1208.6035C542.16626,1208.6064,542.5981,1209.042,542.5959,1209.5771 Z"
         id="path70" />
    </g>
    <g
       style="fill:rgb(50,50,50); fill-opacity:1.0; stroke-linejoin: miter"
       id="g76">
      <path
         d="M547.8798,1183.6682C561.66644,1183.7275,572.79486,1194.9521,572.7356,1208.7393C572.676,1222.5261,561.45123,1233.6548,547.6646,1233.5952C533.87756,1233.5354,522.7493,1222.3108,522.80896,1208.5237C522.8684,1194.7366,534.09296,1183.6089,547.8798,1183.6682 Z M547.6954,1226.4617C557.5433,1226.5046,565.5607,1218.5557,565.6033,1208.7075C565.64575,1198.8604,557.6969,1190.8428,547.8491,1190.7998C538.0014,1190.7576,529.98376,1198.7065,529.9414,1208.554C529.899,1218.4021,537.84766,1226.4199,547.6954,1226.4617 Z"
         id="path74" />
    </g>
    <g
       style="fill:rgb(0,102,102); fill-opacity:1.0; stroke-linejoin: miter"
       id="g80">
      <path
         d="M311.29108,1178.501C314.70178,1173.3286,323.38495,1171.5576,330.00256,1169.4282C376.19812,1158.481,391.52814,1162.1755,399.23492,1161.1223C400.7907,1160.7153,402.182,1159.364,403.45624,1158.5784C406.2489,1156.8555,409.14587,1155.3411,411.89807,1153.6719C416.4452,1150.9133,437.42114,1139.5579,443.088,1137.5142C455.53992,1133.0247,475.2102,1129.4661,522.555,1133.4631C524.47943,1132.9434,525.64606,1131.3972,527.6913,1130.9226C529.71423,1130.4531,531.5654,1131.5247,532.9958,1131.8611C532.9631,1133.4133,533.0965,1134.6738,533.3446,1135.8894C542.5838,1139.8328,551.9371,1142.8672,561.1223,1146.81C564.95526,1148.4553,568.91034,1150.0652,572.81665,1151.803C575.2463,1152.8838,577.5654,1154.4146,580.3065,1155.3132C583.2837,1156.2893,586.5444,1155.8684,589.82007,1156.6355C595.78326,1158.0327,602.25494,1158.2434,608.85077,1158.3655C609.5991,1159.6609,610.9059,1160.9683,611.2125,1162.5859C610.0684,1162.9338,609.68225,1163.7197,609.73627,1165.3252C611.7421,1168.3254,611.18243,1172.5852,611.1486,1177.4133C615.4397,1179.634,616.05896,1187.7056,614.9207,1194.0884L615.2797,1195.7378C615.042,1197.5425,614.44617,1199.448,614.3402,1201.4084C612.7204,1202.4851,610.88226,1204.2168,609.74506,1205.7822C609.1904,1206.5457,608.91644,1207.8643,607.90436,1208.1543C602.4838,1212.0747,575.1173,1212.7722,575.1173,1212.7722L573.6775,1212.845C573.9034,1211.4858,574.0256,1210.0911,574.03174,1208.6694C574.09357,1194.3306,562.5196,1182.657,548.1812,1182.5952C533.8424,1182.5334,522.16876,1194.1067,522.1069,1208.4456C522.0965,1210.8538,522.4089,1214.7654,523.0133,1216.981L379.18,1216.1069C380.06494,1213.5107,380.55072,1210.73,380.56335,1207.8359C380.625,1193.4971,369.0512,1181.8228,354.71234,1181.7612C340.37347,1181.6992,328.69952,1193.2732,328.6377,1207.6118C328.6269,1210.125,328.9745,1212.5562,329.6311,1214.8569L328.1612,1214.8196C328.1612,1214.8196,316.83203,1214.2239,314.07373,1212.929C311.3158,1211.634,310.25128,1207.9692,310.25128,1207.9692L311.0166,1200.2842C311.016,1200.2842,307.68237,1183.977,311.29297,1178.501 Z M541.10956,1160.6384C549.7374,1154.9587,545.20825,1148.2654,545.4401,1148.2876C545.57715,1148.4106,545.6759,1148.5085,545.7379,1148.5747C545.5563,1148.3809,545.46674,1148.2903,545.4401,1148.2876C543.2322,1146.3025,530.6199,1137.4133,485.7439,1137.1497C484.30627,1145.0139,482.8581,1155.3481,481.42126,1163.2124C499.48035,1162.7434,535.0189,1163.2019,541.1109,1160.6384 Z M425.40613,1163.0662C429.34973,1163.0833,468.60797,1163.2422,468.60797,1163.2422C468.60797,1163.2422,475.01703,1146.5618,477.3233,1137.2976C477.05933,1137.3208,469.26764,1137.6277,469.26764,1137.6277C469.26764,1137.6277,453.8376,1139.3169,444.1673,1142.4624C436.55963,1144.937,421.5172,1154.949,421.22888,1155.5435C425.7401,1155.794,426.79315,1159.3528,425.40637,1163.0662 Z"
         id="path78" />
    </g>
    <g
       style="fill:rgb(50,50,50); fill-opacity:1.0; stroke-linejoin: miter"
       id="g84">
      <path
         d="M354.1715,1205.3174C355.43433,1205.323,356.45392,1206.3513,356.4486,1207.6143C356.44305,1208.877,355.41467,1209.8967,354.15167,1209.8909 Z"
         id="path82" />
    </g>
    <g
       style="fill:rgb(50,50,50); fill-opacity:1.0; stroke-linejoin: miter"
       id="g88">
      <path
         d="M354.14337,1211.8071C354.67865,1211.8096,355.11096,1212.2451,355.10858,1212.7805C355.10626,1213.3159,354.67084,1213.7485,354.135,1213.7456C353.5996,1213.7437,353.16785,1213.3076,353.1701,1212.7722C353.17224,1212.237,353.6079,1211.8044,354.14337,1211.8071 Z"
         id="path86" />
    </g>
    <g
       style="fill:rgb(50,50,50); fill-opacity:1.0; stroke-linejoin: miter"
       id="g92">
      <path
         d="M351.5617,1214.7715L351.5279,1222.623C349.23322,1222.2234,347.117,1221.3108,345.29828,1220.0093L350.87366,1214.4819C351.09717,1214.5881,351.32635,1214.6863,351.5617,1214.7715 Z"
         id="path90" />
    </g>
    <g
       style="fill:rgb(50,50,50); fill-opacity:1.0; stroke-linejoin: miter"
       id="g96">
      <path
         d="M347.25555,1210.8335L341.6806,1216.3616C340.39435,1214.5315,339.50104,1212.4058,339.1209,1210.1082L346.97272,1210.1421C347.05627,1210.3782,347.15057,1210.6091,347.25555,1210.8335 Z"
         id="path94" />
    </g>
    <g
       style="fill:rgb(50,50,50); fill-opacity:1.0; stroke-linejoin: miter"
       id="g100">
      <path
         d="M347.2846,1204.3164C347.17743,1204.54,347.0805,1204.7698,346.99463,1205.0051L339.14282,1204.9712C339.54242,1202.677,340.45502,1200.56,341.75665,1198.7412L347.2846,1204.3164 Z"
         id="path98" />
    </g>
    <g
       style="fill:rgb(50,50,50); fill-opacity:1.0; stroke-linejoin: miter"
       id="g104">
      <path
         d="M357.44922,1200.728C357.22522,1200.6206,356.9959,1200.5232,356.76062,1200.4377L356.79456,1192.5867C359.089,1192.9861,361.2058,1193.8984,363.02423,1195.2002L357.44922,1200.728 Z"
         id="path102" />
    </g>
    <g
       style="fill:rgb(50,50,50); fill-opacity:1.0; stroke-linejoin: miter"
       id="g108">
      <path
         d="M354.17975,1203.4006C353.6441,1203.3982,353.2124,1202.9624,353.21448,1202.427C353.21698,1201.8916,353.6524,1201.4592,354.18805,1201.4619C354.72333,1201.4639,355.15546,1201.9001,355.15326,1202.4355C355.15076,1202.9707,354.71497,1203.4031,354.17975,1203.4006 Z"
         id="path106" />
    </g>
    <g
       style="fill:rgb(50,50,50); fill-opacity:1.0; stroke-linejoin: miter"
       id="g112">
      <path
         d="M345.40533,1195.1235C347.235,1193.8376,349.36,1192.9436,351.6574,1192.564L351.6236,1200.4153C351.38757,1200.4983,351.15717,1200.5938,350.93292,1200.6992L345.40533,1195.1235 Z"
         id="path110" />
    </g>
    <g
       style="fill:rgb(50,50,50); fill-opacity:1.0; stroke-linejoin: miter"
       id="g116">
      <path
         d="M361.0669,1204.3748L366.64197,1198.8472C367.92822,1200.6768,368.82178,1202.8025,369.20172,1205.1003L361.3499,1205.0664C361.26648,1204.8303,361.1725,1204.5996,361.0669,1204.3748 Z"
         id="path114" />
    </g>
    <g
       style="fill:rgb(50,50,50); fill-opacity:1.0; stroke-linejoin: miter"
       id="g120">
      <path
         d="M362.91785,1220.0842C361.0879,1221.3706,358.9627,1222.2642,356.66486,1222.644L356.69904,1214.7932C356.93506,1214.7097,357.16565,1214.6147,357.3902,1214.509L362.91785,1220.0842 Z"
         id="path118" />
    </g>
    <g
       style="fill:rgb(50,50,50); fill-opacity:1.0; stroke-linejoin: miter"
       id="g124">
      <path
         d="M361.32837,1210.2029L369.17944,1210.2378C368.78003,1212.5317,367.86786,1214.6484,366.56604,1216.4673L361.03833,1210.8914C361.14545,1210.6677,361.24286,1210.4385,361.32837,1210.2029 Z"
         id="path122" />
    </g>
    <g
       style="fill:rgb(50,50,50); fill-opacity:1.0; stroke-linejoin: miter"
       id="g128">
      <path
         d="M358.36414,1207.6216C358.36664,1207.0857,358.8026,1206.6538,359.338,1206.6565C359.87347,1206.6587,360.30554,1207.0942,360.30298,1207.6296C359.76813,1207.627,359.3357,1207.1914,359.338,1206.6565 Z"
         id="path126" />
    </g>
    <g
       style="fill:rgb(50,50,50); fill-opacity:1.0; stroke-linejoin: miter"
       id="g132">
      <path
         d="M349.95868,1207.5857C349.95648,1208.1208,349.5207,1208.5527,348.98505,1208.5508C348.44952,1208.5481,348.0177,1208.1128,348.01996,1207.5771C348.55548,1207.5796,348.98737,1208.0154,348.98505,1208.5508 Z"
         id="path130" />
    </g>
    <g
       style="fill:rgb(50,50,50); fill-opacity:1.0; stroke-linejoin: miter"
       id="g136">
      <path
         d="M354.2691,1182.6404C368.0559,1182.7002,379.18457,1193.9253,379.12543,1207.7124C379.06586,1221.5,367.84088,1232.6279,354.05402,1232.5681C340.26678,1232.5093,329.1386,1221.2842,329.19788,1207.4971C329.25726,1193.71,340.4818,1182.5818,354.2691,1182.6404 Z M354.0846,1225.4348C363.93256,1225.478,371.9502,1217.5293,371.99304,1207.6814C372.03516,1197.8333,364.0863,1189.8154,354.23846,1189.7722C344.39032,1189.7307,336.37286,1197.6792,336.33026,1207.5271C336.28772,1217.3752,344.23676,1225.3928,354.0846,1225.4348 Z"
         id="path134" />
    </g>
    <g
       style="fill:rgb(191,201,210); fill-opacity:1.0; stroke-linejoin: miter"
       id="g140">
      <path
         d="M477.32446,1137.0432C477.46478,1137.0435,477.5783,1137.1582,477.5777,1137.2988C477.5777,1137.3267,477.57312,1137.3533,477.56464,1137.3782L477.56537,1137.3787C475.2506,1146.6641,468.84558,1163.3337,468.84558,1163.3337C468.80774,1163.4321,468.7127,1163.4973,468.60693,1163.4963L425.40656,1163.321C425.37518,1163.321,425.34412,1163.3154,425.31482,1163.304L425.31384,1163.3032C425.18427,1163.2529,425.11926,1163.1077,425.1681,1162.9775C426.30408,1159.9346,425.7354,1157.1477,423.11102,1156.1675L423.11102,1156.1677C422.57434,1155.967,421.9442,1155.8374,421.21466,1155.7974C421.1297,1155.7927,421.0526,1155.7458,421.00946,1155.6721C420.96625,1155.5989,420.96246,1155.5088,420.99976,1155.4329C421.01312,1155.4048,421.02875,1155.3821,421.0412,1155.366L421.0412,1155.3667C421.68835,1154.5168,436.5421,1144.6753,444.08862,1142.2202L444.08862,1142.2205C453.67242,1139.1033,468.87518,1137.415,469.2334,1137.3757L469.2342,1137.3762C469.22565,1137.3765,469.21735,1137.3784,469.21344,1137.3792L469.21344,1137.3796L469.2685,1137.373L469.25763,1137.3733C469.26617,1137.373,476.9787,1137.0691,477.29816,1137.0442L477.2989,1137.0444C477.30725,1137.0435,477.31573,1137.0432,477.32446,1137.0432 Z"
         id="path138" />
    </g>
    <g
       style="fill:rgb(191,201,210); fill-opacity:1.0; stroke-linejoin: miter"
       id="g144">
      <path
         d="M545.61444,1148.4724C545.5966,1148.4893,545.5768,1148.5032,545.5555,1148.5142C545.57544,1148.5042,545.5956,1148.4905,545.61444,1148.4724 Z M545.60913,1148.478C545.5832,1148.5007,545.5527,1148.5188,545.5194,1148.529L545.51953,1148.53C545.5196,1148.53,545.51984,1148.53,545.51996,1148.5308L545.51996,1148.531C545.5575,1148.5193,545.5866,1148.5002,545.60925,1148.478 Z M485.74536,1136.8948C530.6431,1137.1592,543.3327,1146.0513,545.6102,1148.0984C545.6664,1148.1487,545.696,1148.2197,545.6947,1148.293L545.6947,1148.293C545.70856,1148.3271,545.7331,1148.383,545.77167,1148.4702L545.77167,1148.4707C546.0303,1149.0559,546.67554,1150.5139,546.67834,1152.396L546.67834,1152.3962C546.68195,1154.8579,545.5879,1157.9912,541.2614,1160.8435L541.2614,1160.8438C541.2458,1160.855,541.2283,1160.8647,541.2093,1160.8728C536.5808,1162.8208,515.37866,1163.0381,497.53094,1163.2273C491.55823,1163.2903,485.94354,1163.3494,481.4278,1163.4668C481.4251,1163.4668,481.42273,1163.4668,481.4201,1163.4668C481.3462,1163.4663,481.27612,1163.4338,481.22797,1163.3777C481.17792,1163.3196,481.15704,1163.2417,481.1709,1163.1667C481.88867,1159.239,482.60907,1154.6956,483.3302,1150.146C484.05127,1145.5984,484.77325,1141.0449,485.49243,1137.1099L485.4925,1137.1094L485.4934,1137.1035C485.5157,1136.9819,485.62177,1136.8943,485.74493,1136.8948 Z"
         id="path142" />
    </g>
    <g
       style="fill:rgb(255,227,0); fill-opacity:1.0; stroke-linejoin: miter"
       id="g148">
      <path
         d="M316.26697,1192.73L316.26697,1192.7307C316.18915,1191.6875,316.0105,1189.842,315.7397,1187.1931C315.66473,1186.46,315.38013,1184.0806,314.87738,1180.0559L310.87152,1178.4016C310.4845,1183.0642,309.518,1185.7454,311.2503,1188.4243C312.3999,1190.2019,314.16925,1191.5884,316.26453,1192.73L316.26697,1192.7307 Z"
         id="path146" />
    </g>
    <g
       style="fill:rgb(255,0,0); fill-opacity:1.0; stroke-linejoin: miter"
       id="g152">
      <path
         d="M611.60187,1169.0303L609.5155,1164.9604Q605.732,1169.3188,604.4981,1171.3345Q603.9844,1172.1499,603.6735,1172.8708L603.42596,1173.5618L603.3054,1174.1941L603.32434,1174.7607L603.49146,1175.2583L603.79785,1175.6904L604.2311,1176.064L604.7786,1176.3835Q605.38336,1176.6763,606.1654,1176.8865Q608.6134,1177.4688,611.7463,1177.731L611.60187,1169.0303"
         id="path150" />
    </g>
    <g
       style="fill:rgb(0,0,0); fill-opacity:1.0; stroke-linejoin: miter"
       id="g156">
      <path
         d="M425.63507,1248.791L425.63507,1250.8977L427.4784,1250.8992L427.4784,1248.791L425.63507,1248.7925 Z"
         id="path154" />
    </g>
    <g
       style="fill:rgb(60,70,79); fill-opacity:1.0; stroke-linejoin: miter"
       id="g160">
      <path
         d="M480.75006,1055.4907L479.3286,1063.5874L479.33417,1063.593C477.59662,1063.877,475.9154,1064.3318,474.30963,1064.938L474.30963,1064.9326L469.03387,1058.6287L464.07483,1061.4934L466.89056,1069.2134L466.90155,1069.2188C465.55713,1070.3225,464.3249,1071.5588,463.222,1072.9038L463.21667,1072.8872L455.4969,1070.0718L452.63196,1075.0305L458.93567,1080.3123C458.33075,1081.9165,457.8797,1083.5952,457.59625,1085.331L457.59064,1085.3257L449.49365,1086.7471L449.49365,1092.4766L457.59076,1093.8982L457.59625,1093.8928C457.8797,1095.6287,458.33075,1097.3074,458.93567,1098.9121L452.63202,1104.1931L455.49695,1109.1521L463.21667,1106.3364L463.222,1106.3201C464.32495,1107.6648,465.55713,1108.9014,466.90155,1110.0051L466.89056,1110.0105L464.07495,1117.7305L469.03375,1120.5952L474.30963,1114.2913L474.30963,1114.2859C475.91522,1114.8916,477.59662,1115.3467,479.33417,1115.6306L479.32855,1115.6362L480.75,1123.7334L486.4743,1123.7334L487.89575,1115.6365L487.89038,1115.6306C489.6275,1115.3477,491.30908,1114.8962,492.91467,1114.2913L498.1961,1120.5952L503.1549,1117.7305L500.3338,1110.0105C501.67517,1108.9097,502.90662,1107.6775,504.0077,1106.3364L511.73297,1109.1521L514.5924,1104.1931L508.2942,1098.9116C508.89923,1097.3071,509.3556,1095.6294,509.63898,1093.8928L517.7361,1092.477L517.7362,1086.7473L509.63898,1085.3259C509.3554,1083.5913,508.89856,1081.9153,508.2942,1080.312L514.5924,1075.0308L511.73297,1070.072L504.0077,1072.8875C502.90662,1071.5466,501.67517,1070.3145,500.33374,1069.2136L503.15497,1061.4934L498.1961,1058.6289L492.9148,1064.9329C491.30908,1064.3279,489.62744,1063.8762,487.89032,1063.5933L487.8958,1063.5879L486.4743,1055.4907L480.75006,1055.491 Z M483.6148,1069.4324C494.7611,1069.4321,503.80084,1078.4658,503.80084,1089.6113C503.80084,1100.7576,494.76196,1109.79,483.6148,1109.79C472.46863,1109.79,463.4358,1100.7568,463.43585,1089.6113C463.43585,1078.4651,472.46918,1069.4324,483.6148,1069.4324 Z"
         id="path158" />
    </g>
    <g
       style="fill:rgb(60,70,79); fill-opacity:1.0; stroke-linejoin: miter"
       id="g164">
      <path
         d="M446.94183,1094.5579L446.94183,1094.5583L442.11,1097.8203L442.11,1097.8208L435.84833,1102.0481C435.25537,1102.4487,434.4939,1102.5032,433.84967,1102.1917L433.84967,1102.1921L427.08026,1098.9172C426.43066,1098.603,425.99957,1097.9646,425.95087,1097.2446L425.95087,1097.2451L425.44342,1089.7422C425.39508,1089.0281,425.7304,1088.3423,426.32343,1087.9417L426.32343,1087.9421L432.58508,1083.7141L432.58508,1083.7146L437.41595,1080.4521L437.41595,1080.4526C436.89197,1080.8059,436.33643,1081.8203,436.99756,1082.7991L436.99738,1082.7991C437.14362,1083.0159,437.31482,1083.1609,437.46075,1083.2534L437.46075,1083.2539C432.2671,1079.9624,425.56488,1080.0527,420.40497,1083.5359L420.40588,1083.5352C415.5039,1086.8486,412.9029,1092.6191,413.64642,1098.4194L413.64642,1098.4199C413.7744,1099.4182,413.3166,1100.5254,412.4303,1101.1238L412.43024,1101.1238L380.15295,1122.9172L380.15295,1122.9177C378.34808,1124.136,377.69702,1127.1233,379.51508,1129.8154L379.51508,1129.8159C381.33307,1132.5083,384.34705,1133.0205,386.15186,1131.802L386.15186,1131.802L418.4292,1110.008L418.4292,1110.0085C419.31567,1109.4094,420.5138,1109.3989,421.3921,1109.8906L421.3921,1109.8911C426.4945,1112.7485,432.8189,1112.4922,437.7245,1109.1836L437.7235,1109.1843C442.88324,1105.7004,445.47192,1099.5171,444.36023,1093.4695L444.36023,1093.4692C444.48346,1094.1392,445.22266,1095.0049,446.3443,1094.7986L446.34442,1094.7993C446.5996,1094.7517,446.79993,1094.6536,446.9419,1094.5576L447.78973,1093.2751L447.78973,1093.2756C447.68835,1093.7983,447.3833,1094.2598,446.94183,1094.5579L446.94183,1094.5583 M444.69373,1091.2283L443.84576,1092.511L443.84576,1092.5115C443.9472,1091.9878,444.25214,1091.5266,444.69366,1091.2285L444.69366,1091.229C444.94592,1091.0581,445.2567,1090.9138,445.61804,1090.8477L445.61823,1090.8477C447.07977,1090.5789,448.11157,1091.6543,448.31152,1092.7434L448.31152,1092.7437C449.7132,1100.3684,446.44812,1108.1404,439.9718,1112.5134L439.97095,1112.5142C433.8133,1116.6675,425.86084,1116.998,419.42908,1113.3958L419.42908,1113.3958C419.81964,1113.6147,420.2541,1113.6235,420.6772,1113.3376L420.6772,1113.3379L388.40002,1135.1311L388.40002,1135.1316C384.33014,1137.8794,378.9364,1136.1372,376.1856,1132.0637L376.1856,1132.064C373.4348,1127.9897,373.83508,1122.3359,377.9049,1119.5879L377.9049,1119.5884L410.18213,1097.7947L410.182,1097.7947C409.75903,1098.0801,409.60474,1098.4861,409.66162,1098.9304L409.66162,1098.9309C408.7243,1091.6187,412.0028,1084.3662,418.1563,1080.207L418.15717,1080.2063C424.63385,1075.8345,433.06244,1075.7102,439.61108,1079.8599L439.61102,1079.8599C439.8667,1080.022,440.1222,1080.2478,440.32715,1080.5513L440.32703,1080.5518C441.1823,1081.8179,440.54364,1083.1877,439.66406,1083.7815L439.66406,1083.782L434.83307,1087.0432L434.83307,1087.0437L428.5716,1091.271L429.4516,1089.4712L429.9591,1096.9736L428.82953,1095.3008L435.599,1098.5754L433.60028,1098.7188L439.8617,1094.491L439.8617,1094.4915L444.69373,1091.2283 Z"
         id="path162" />
    </g>
    <g
       style="fill:rgb(255,177,133); fill-opacity:1.0; stroke-linejoin: miter"
       id="g168">
      <path
         d="M410.56793,1128.1504Q410.85608,1128.7212,410.96832,1129.1511Q412.34222,1132.5186,409.71704,1135.2781Q408.02362,1137.3601,398.75824,1141.0349L398.54437,1141.7764Q396.8813,1147.7751,394.68915,1148.9348Q392.3578,1150.4221,387.51978,1150.582Q382.0974,1155.1052,378.1222,1155.8936Q375.55322,1156.2808,372.9864,1155.3652Q371.2287,1154.9148,366.05652,1152.0422Q361.82635,1151.6096,360.1618,1150.8335Q358.18652,1149.9463,357.32666,1149.0981Q355.59155,1147.45,354.31024,1144.9102Q352.10913,1140.5474,351.2473,1133.5542Q349.53442,1122.3057,348.6278,1097.5254L378.84143,1082.9407L386.26428,1097.7068L396.47687,1100.6428Q398.96582,1112.4248,400.93518,1116.3284Q401.0797,1116.6145,401.2213,1116.8584Q402.23395,1118.7332,403.4048,1120.0093Q408.55225,1124.9014,408.75757,1125.3081Q408.78003,1125.3528,408.74347,1125.3435Q409.99878,1127.0222,410.56793,1128.1504 Z"
         id="path166" />
    </g>
    <g
       style="fill:rgb(0,0,0); fill-opacity:1.0; stroke-linejoin: miter"
       id="g172">
      <path
         d="M372.8869,1071.2241L377.96985,1081.2998L383.05316,1091.3755Q363.82788,1101.0747,344.60254,1110.7744Q339.51898,1100.699,334.43555,1090.6235Q353.66132,1080.9238,372.8869,1071.2241 Z"
         id="path170" />
    </g>
    <g
       style="fill:rgb(0,0,0); fill-opacity:1.0; stroke-linejoin: miter"
       id="g176">
      <path
         d="M323.29315,1079.0056L345.8714,1067.9355L368.44952,1056.8657Q374.98303,1070.1914,381.51666,1083.5171L336.36072,1105.6575Q329.8269,1092.3315,323.29315,1079.0056"
         id="path174" />
    </g>
    <g
       style="fill:rgb(83,93,102); fill-opacity:1.0; stroke-linejoin: miter"
       id="g180">
      <path
         d="M429.16516,1080.7354C426.09204,1080.7354,423.01202,1081.6353,420.34204,1083.437L420.3416,1083.4375C420.34088,1083.4377,420.3401,1083.4382,420.3393,1083.4387C415.4013,1086.7769,412.781,1092.5903,413.53027,1098.4343C413.6529,1099.3914,413.2127,1100.4541,412.36475,1101.0266L412.36462,1101.0266L398.73608,1110.229L398.73584,1110.2295C398.72308,1110.2373,398.71173,1110.2483,398.70276,1110.2612L398.70264,1110.2617C398.68024,1110.2947,398.67676,1110.3352,398.69037,1110.3704L398.6902,1110.3706Q399.8263,1114.3901,400.83063,1116.3813L400.83063,1116.3813Q400.97662,1116.6704,401.12012,1116.9172L401.11993,1116.9177Q402.13873,1118.803,403.31854,1120.0886L403.3241,1120.0945Q403.367,1120.135,403.41174,1120.1782C403.43414,1120.1995,403.46332,1120.2107,403.49292,1120.2107C403.50836,1120.2107,403.5241,1120.2075,403.53888,1120.2014C403.5475,1120.1978,403.55548,1120.1929,403.563,1120.1877L403.56262,1120.188L418.4947,1110.1052L418.4947,1110.1052C418.94293,1109.8027,419.47638,1109.6562,420.0056,1109.6562C420.476,1109.6562,420.94025,1109.772,421.33496,1109.9932C423.70477,1111.3203,426.33618,1111.9807,428.96838,1111.9807C432.04608,1111.9807,435.12524,1111.0779,437.789,1109.2817C437.78912,1109.2817,437.78937,1109.2812,437.78955,1109.2812L437.78912,1109.2817C442.22485,1106.2861,444.77466,1101.3103,444.73126,1096.1294C444.73083,1096.0852,444.7057,1096.0447,444.6662,1096.0256L444.66547,1096.0251C444.64905,1096.0168,444.63123,1096.0127,444.61346,1096.0127C444.59045,1096.0127,444.56757,1096.0195,444.54785,1096.033L442.04437,1097.7234L442.04437,1097.7236L435.78284,1101.9512L435.78284,1101.9514C435.46478,1102.166,435.09534,1102.2749,434.72418,1102.2749C434.44336,1102.2749,434.16205,1102.2126,433.90057,1102.0864L427.13116,1098.8118L427.13135,1098.8123C426.51953,1098.5159,426.1136,1097.9146,426.0677,1097.2366L425.5603,1089.7344C425.5147,1089.0618,425.8305,1088.416,426.38898,1088.0391L426.38898,1088.0393L432.65045,1083.8115L432.65045,1083.8115L435.15363,1082.1213L435.1538,1082.1218C435.18842,1082.0981,435.20844,1082.0583,435.2057,1082.0161C435.2027,1081.9717,435.17468,1081.9326,435.13342,1081.9158C433.22723,1081.1292,431.1975,1080.7354,429.16516,1080.7354 Z"
         id="path178" />
    </g>
    <g
       style="fill:rgb(0,0,0); fill-opacity:1.0; stroke-linejoin: miter"
       id="g184">
      <path
         d="M358.7791,1073.7188C356.65857,1073.7188,354.6588,1075.0061,353.8526,1077.104C352.80713,1079.8242,354.1648,1082.8767,356.88525,1083.9221Q357.59595,1084.1953,357.82666,1084.3132L357.8269,1084.3132Q357.8294,1084.3145,357.8333,1084.3164C358.6126,1084.7229,359.44672,1084.9155,360.26868,1084.9155C362.17224,1084.9155,364.01062,1083.8823,364.95172,1082.0776C366.2992,1079.4939,365.29688,1076.3069,362.71295,1074.9595Q362.67487,1074.9395,362.63013,1074.9167L362.62732,1074.915Q361.90228,1074.5447,360.6706,1074.0715L360.67084,1074.0715C360.04834,1073.8323,359.4084,1073.7188,358.7791,1073.7188 Z"
         id="path182" />
    </g>
  </g>
</svg>
